<?xml version="1.0" encoding="utf-8"?>
<!-- Generator: Adobe Illustrator 15.0.0, SVG Export Plug-In . SVG Version: 6.00 Build 0)  -->
<!DOCTYPE svg PUBLIC "-//W3C//DTD SVG 1.1//EN" "http://www.w3.org/Graphics/SVG/1.1/DTD/svg11.dtd">
<svg version="1.1" id="Calque_1" xmlns="http://www.w3.org/2000/svg" xmlns:xlink="http://www.w3.org/1999/xlink" x="0px" y="0px"
	 width="283.46px" height="178.085px" viewBox="0 54.933 283.46 178.085" enable-background="new 0 54.933 283.46 178.085"
	 xml:space="preserve">
<g>
	<g>
		<path fill="#999999" d="M134.057,108.199c-6.939,0-10.983-3.724-15.119-8.733l-6.848,6.848c2.16,2.206,4.596,4.457,7.169,6.848
			c3.861,3.308,8.64,5.009,14.385,5.009c5.331,0,10.064-1.93,14.248-5.745c4.184-3.813,6.249-8.41,6.249-13.695
			c0-1.241-0.138-2.849-0.462-4.182c-0.412-1.884-0.871-2.987-1.284-3.814c-0.967-2.298-2.987-4.504-6.021-6.71
			c-2.481-1.792-5.193-3.216-8.088-4.228c-4.504-1.655-6.939-2.528-7.261-2.711c-2.896-1.517-4.321-3.493-4.321-5.883
			c0-1.975,0.92-3.538,2.758-4.732c1.654-1.104,3.447-1.609,5.469-1.609c3.769,0,7.354,1.287,10.8,3.906l6.25-7.17
			c-3.676-4.32-9.237-6.433-16.636-6.433c-4.964,0-9.329,1.378-13.052,4.089c-4.136,3.034-6.204,6.985-6.204,11.812
			c0,5.515,2.389,9.79,7.124,12.914c4.411,2.022,8.823,4.045,13.236,6.113c4.733,2.252,7.123,5.009,7.123,8.318
			c0,2.757-0.873,5.102-2.62,6.986C139.112,107.28,136.86,108.199,134.057,108.199z"/>
		<path fill="#999999" d="M11.029,79.061c0-7.215,5.882-13.097,13.097-13.097s13.098,5.882,13.098,13.097v39.063h11.03V79.061
			c0-7.215,5.883-13.097,13.097-13.097c7.215,0,13.098,5.882,13.098,13.097v39.063h11.03V79.061
			c0-13.281-10.846-24.127-24.128-24.127c-7.491,0-14.2,3.447-18.613,8.777c-4.412-5.377-11.121-8.777-18.613-8.777
			C10.845,54.934,0,65.78,0,79.061v39.063h11.03L11.029,79.061L11.029,79.061z"/>
		<rect x="94.671" y="54.934" fill="#999999" width="11.03" height="63.19"/>
		<polygon fill="#999999" points="170.685,118.125 181.712,118.125 181.712,65.964 193.708,65.964 193.708,54.934 158.781,54.934 
			158.781,65.964 170.685,65.964 		"/>
		<polygon fill="#999999" points="231.854,118.125 231.854,107.096 213.932,107.096 213.932,90.781 230.475,90.781 230.475,79.75 
			213.932,79.75 213.932,65.964 231.854,65.964 231.854,54.934 202.901,54.934 202.901,55.393 202.901,65.964 202.901,79.75 
			202.901,90.781 202.901,107.096 202.901,118.125 213.932,118.125 		"/>
		<path fill="#999999" d="M252.076,101.81h2.527c1.7,0,3.4-0.184,5.008-0.459l10.756,16.773h13.098l-13.604-21.232
			c5.377-4.045,8.87-10.34,8.87-17.832c0-13.281-10.847-24.127-24.128-24.127h-13.557v63.19h11.029V101.81L252.076,101.81z
			 M254.603,65.964c7.216,0,13.098,5.882,13.098,13.097c0,7.216-5.882,11.72-13.098,11.72h-2.527V65.964H254.603z"/>
	</g>
	<g>
		<path fill="#E94F2D" d="M14.659,182.375h34.882v29.045h14.661v-51.979c0-17.694-14.385-32.125-32.125-32.125
			C14.337,127.316,0,141.747,0,159.441v51.979h14.66L14.659,182.375L14.659,182.375z M32.078,142.022
			c9.605,0,17.418,7.813,17.418,17.419v8.271H14.659v-8.271C14.659,149.835,22.472,142.022,32.078,142.022z"/>
		<path fill="#E94F2D" d="M108.551,211.462c17.693,0,32.124-14.383,32.124-32.123v-51.978h-14.66v51.978
			c0,9.605-7.813,17.42-17.417,17.42c-9.605,0-17.418-7.813-17.418-17.42v-51.978H76.519v51.978
			C76.427,197.035,90.857,211.462,108.551,211.462z"/>
		<polygon fill="#E94F2D" points="168.8,211.462 183.46,211.462 183.46,142.022 199.363,142.022 199.363,127.362 152.899,127.362 
			152.899,142.022 168.8,142.022 		"/>
		<path fill="#E94F2D" d="M241.414,211.144c23.209,0,42.051-18.842,42.051-42.053c0-23.207-18.842-42.05-42.051-42.05
			s-42.051,18.843-42.051,42.05C199.363,192.302,218.251,211.144,241.414,211.144z M241.735,142.022
			c15.074,0,27.392,12.271,27.392,27.392s-12.271,27.392-27.392,27.392c-15.073,0-27.39-12.271-27.39-27.392
			C214.345,154.294,226.662,142.022,241.735,142.022z"/>
	</g>
</g>
<rect x="-0.331" y="222.035" fill="#E94F2D" width="283.792" height="10.983"/>
</svg>
