<!--?xml version="1.0" encoding="utf-8"?-->
<!-- Generator: Adobe Illustrator 15.0.0, SVG Export Plug-In . SVG Version: 6.00 Build 0)  -->

<svg version="1.1" id="Calque_1" xmlns="http://www.w3.org/2000/svg" xmlns:xlink="http://www.w3.org/1999/xlink" x="0px" y="0px" width="141.73px" height="141.73px" viewBox="0 0 141.73 141.73" enable-background="new 0 0 141.73 141.73" xml:space="preserve" style="">
<path fill="none" stroke="#E1E1E1" stroke-width="18" stroke-miterlimit="10" d="M12.501,100.037V47.609
	c0-16.686,13.214-30.21,29.515-30.21c16.302,0,29.515,13.524,29.515,30.21v43.994h0.016V47.609c0-16.686,13.213-30.21,29.514-30.21
	c16.302,0,29.515,13.524,29.515,30.21v52.429" class="tfDWwJJM_0"></path>
<path fill="none" stroke="#E1E1E1" stroke-width="18" stroke-linecap="square" stroke-miterlimit="10" d="M12.501,125.573h118.072" class="tfDWwJJM_1"></path>
<path fill="none" stroke="#F26A30" stroke-width="18" stroke-miterlimit="10" d="M12.501,100.037V47.609
	c0-16.686,13.214-30.21,29.515-30.21c16.302,0,29.515,13.524,29.515,30.21v43.994h0.016V47.609c0-16.686,13.213-30.21,29.514-30.21
	c16.302,0,29.515,13.524,29.515,30.21v52.429" class="tfDWwJJM_2"></path>
<path fill="none" stroke="#F26A30" stroke-width="18" stroke-linecap="square" stroke-miterlimit="10" d="M12.501,125.573h118.072" class="tfDWwJJM_3"></path>
<path fill="none" stroke="#E6512A" stroke-width="18" stroke-miterlimit="10" d="M12.501,100.037V47.609
	c0-16.686,13.214-30.21,29.515-30.21c16.302,0,29.515,13.524,29.515,30.21v43.994h0.016V47.609c0-16.686,13.213-30.21,29.514-30.21
	c16.302,0,29.515,13.524,29.515,30.21v52.429" class="tfDWwJJM_4"></path>
<path fill="none" stroke="#E6512A" stroke-width="18" stroke-linecap="square" stroke-miterlimit="10" d="M12.501,125.573h118.072" class="tfDWwJJM_5"></path>
<style data-made-with="vivus-instant">.tfDWwJJM_0{stroke-dasharray:381 383;stroke-dashoffset:382;animation:tfDWwJJM_draw_0 1900ms ease-in-out 0ms infinite,tfDWwJJM_fade 1900ms linear 0ms infinite;}.tfDWwJJM_1{stroke-dasharray:119 121;stroke-dashoffset:120;animation:tfDWwJJM_draw_1 1900ms ease-in-out 0ms infinite,tfDWwJJM_fade 1900ms linear 0ms infinite;}.tfDWwJJM_2{stroke-dasharray:381 383;stroke-dashoffset:382;animation:tfDWwJJM_draw_2 1900ms ease-in-out 0ms infinite,tfDWwJJM_fade 1900ms linear 0ms infinite;}.tfDWwJJM_3{stroke-dasharray:119 121;stroke-dashoffset:120;animation:tfDWwJJM_draw_3 1900ms ease-in-out 0ms infinite,tfDWwJJM_fade 1900ms linear 0ms infinite;}.tfDWwJJM_4{stroke-dasharray:381 383;stroke-dashoffset:382;animation:tfDWwJJM_draw_4 1900ms ease-in-out 0ms infinite,tfDWwJJM_fade 1900ms linear 0ms infinite;}.tfDWwJJM_5{stroke-dasharray:119 121;stroke-dashoffset:120;animation:tfDWwJJM_draw_5 1900ms ease-in-out 0ms infinite,tfDWwJJM_fade 1900ms linear 0ms infinite;}@keyframes tfDWwJJM_draw{100%{stroke-dashoffset:0;}}@keyframes tfDWwJJM_fade{0%{stroke-opacity:1;}89.47368421052632%{stroke-opacity:1;}100%{stroke-opacity:0;}}@keyframes tfDWwJJM_draw_0{10.526315789473683%{stroke-dashoffset: 382}42.10526315789473%{ stroke-dashoffset: 0;}100%{ stroke-dashoffset: 0;}}@keyframes tfDWwJJM_draw_1{14.736842105263156%{stroke-dashoffset: 120}46.31578947368421%{ stroke-dashoffset: 0;}100%{ stroke-dashoffset: 0;}}@keyframes tfDWwJJM_draw_2{18.947368421052634%{stroke-dashoffset: 382}50.526315789473685%{ stroke-dashoffset: 0;}100%{ stroke-dashoffset: 0;}}@keyframes tfDWwJJM_draw_3{23.157894736842106%{stroke-dashoffset: 120}54.736842105263165%{ stroke-dashoffset: 0;}100%{ stroke-dashoffset: 0;}}@keyframes tfDWwJJM_draw_4{27.368421052631582%{stroke-dashoffset: 382}58.94736842105262%{ stroke-dashoffset: 0;}100%{ stroke-dashoffset: 0;}}@keyframes tfDWwJJM_draw_5{31.57894736842105%{stroke-dashoffset: 120}63.1578947368421%{ stroke-dashoffset: 0;}100%{ stroke-dashoffset: 0;}}</style></svg>
